dataset
version=1
nRows=19
nColumns=39
inDegrees=no
endheader
time	sternoclavicular_r2	sternoclavicular_r3	unrotscap_r3	unrotscap_r2	acromioclavicular_r2	acromioclavicular_r3	acromioclavicular_r1	unrothum_r1	unrothum_r3	unrothum_r2	elv_angle	shoulder_elv	shoulder1_r2	shoulder_rot	elbow_flexion	pro_sup	deviation	flexion	cmc_abduction	cmc_flexion	mp_flexion	ip_flexion	mcp2_flexion	mcp2_abduction	pm2_flexion	md2_flexion	mcp3_flexion	mcp3_abduction	pm3_flexion	md3_flexion	mcp4_flexion	mcp4_abduction	pm4_flexion	md4_flexion	mcp5_flexion	mcp5_abduction	pm5_flexion	md5_flexion
1.315000	-0.010423	-0.283130	0.111087	0.076069	0.068236	0.040572	-0.124044	-0.083363	-0.054367	0.145866	0.088926	0.027437	0.146525	0.146525	1.269533	1.270510	0.000000	0.000000	0.000000	0.000000	0.000000	0.000000	0.000000	0.000000	0.000000	0.000000	0.000000	0.000000	0.000000	0.000000	0.000000	0.000000	0.000000	0.000000	0.000000	0.000000	0.000000	0.000000
1.320000	-0.010399	-0.283341	0.111360	0.075951	0.068145	0.040435	-0.124471	-0.083992	-0.054414	0.145804	0.088729	0.027437	0.146525	0.146525	1.272353	1.270559	0.000000	0.000000	0.000000	0.000000	0.000000	0.000000	0.000000	0.000000	0.000000	0.000000	0.000000	0.000000	0.000000	0.000000	0.000000	0.000000	0.000000	0.000000	0.000000	0.000000	0.000000	0.000000
1.325000	-0.010376	-0.283558	0.111638	0.075831	0.068052	0.040296	-0.124907	-0.084626	-0.054469	0.145741	0.088528	0.027437	0.146525	0.146525	1.275326	1.270600	0.000000	0.000000	0.000000	0.000000	0.000000	0.000000	0.000000	0.000000	0.000000	0.000000	0.000000	0.000000	0.000000	0.000000	0.000000	0.000000	0.000000	0.000000	0.000000	0.000000	0.000000	0.000000
1.330000	-0.010352	-0.283780	0.111922	0.075708	0.067957	0.040153	-0.125351	-0.085263	-0.054532	0.145676	0.088323	0.027437	0.146525	0.146525	1.278453	1.270632	0.000000	0.000000	0.000000	0.000000	0.000000	0.000000	0.000000	0.000000	0.000000	0.000000	0.000000	0.000000	0.000000	0.000000	0.000000	0.000000	0.000000	0.000000	0.000000	0.000000	0.000000	0.000000
1.335000	-0.010329	-0.284008	0.112211	0.075584	0.067860	0.040008	-0.125804	-0.085905	-0.054604	0.145610	0.088114	0.027437	0.146525	0.146525	1.281735	1.270655	0.000000	0.000000	0.000000	0.000000	0.000000	0.000000	0.000000	0.000000	0.000000	0.000000	0.000000	0.000000	0.000000	0.000000	0.000000	0.000000	0.000000	0.000000	0.000000	0.000000	0.000000	0.000000
1.340000	-0.010306	-0.284241	0.112505	0.075457	0.067762	0.039861	-0.126264	-0.086548	-0.054685	0.145543	0.087900	0.027437	0.146525	0.146525	1.285171	1.270669	0.000000	0.000000	0.000000	0.000000	0.000000	0.000000	0.000000	0.000000	0.000000	0.000000	0.000000	0.000000	0.000000	0.000000	0.000000	0.000000	0.000000	0.000000	0.000000	0.000000	0.000000	0.000000
1.345000	-0.010283	-0.284480	0.112803	0.075328	0.067663	0.039710	-0.126732	-0.087194	-0.054774	0.145475	0.087683	0.027437	0.146525	0.146525	1.288761	1.270676	0.000000	0.000000	0.000000	0.000000	0.000000	0.000000	0.000000	0.000000	0.000000	0.000000	0.000000	0.000000	0.000000	0.000000	0.000000	0.000000	0.000000	0.000000	0.000000	0.000000	0.000000	0.000000
1.350000	-0.010261	-0.284722	0.113105	0.075198	0.067563	0.039557	-0.127206	-0.087842	-0.054873	0.145406	0.087461	0.027437	0.146525	0.146525	1.292506	1.270674	0.000000	0.000000	0.000000	0.000000	0.000000	0.000000	0.000000	0.000000	0.000000	0.000000	0.000000	0.000000	0.000000	0.000000	0.000000	0.000000	0.000000	0.000000	0.000000	0.000000	0.000000	0.000000
1.355000	-0.010238	-0.284970	0.113412	0.075066	0.067461	0.039401	-0.127688	-0.088491	-0.054980	0.145336	0.087237	0.027437	0.146525	0.146525	1.296405	1.270663	0.000000	0.000000	0.000000	0.000000	0.000000	0.000000	0.000000	0.000000	0.000000	0.000000	0.000000	0.000000	0.000000	0.000000	0.000000	0.000000	0.000000	0.000000	0.000000	0.000000	0.000000	0.000000
1.360000	-0.010216	-0.285221	0.113722	0.074932	0.067359	0.039242	-0.128176	-0.089140	-0.055097	0.145267	0.087009	0.027437	0.146525	0.146525	1.300458	1.270645	0.000000	0.000000	0.000000	0.000000	0.000000	0.000000	0.000000	0.000000	0.000000	0.000000	0.000000	0.000000	0.000000	0.000000	0.000000	0.000000	0.000000	0.000000	0.000000	0.000000	0.000000	0.000000
1.365000	-0.010194	-0.285477	0.114035	0.074797	0.067256	0.039081	-0.128671	-0.089789	-0.055223	0.145196	0.086778	0.027437	0.146525	0.146525	1.304666	1.270619	0.000000	0.000000	0.000000	0.000000	0.000000	0.000000	0.000000	0.000000	0.000000	0.000000	0.000000	0.000000	0.000000	0.000000	0.000000	0.000000	0.000000	0.000000	0.000000	0.000000	0.000000	0.000000
1.370000	-0.010173	-0.285736	0.114351	0.074661	0.067152	0.038916	-0.129171	-0.090437	-0.055359	0.145126	0.086545	0.027437	0.146525	0.146525	1.309027	1.270586	0.000000	0.000000	0.000000	0.000000	0.000000	0.000000	0.000000	0.000000	0.000000	0.000000	0.000000	0.000000	0.000000	0.000000	0.000000	0.000000	0.000000	0.000000	0.000000	0.000000	0.000000	0.000000
1.375000	-0.010152	-0.285999	0.114670	0.074524	0.067047	0.038749	-0.129677	-0.091084	-0.055503	0.145055	0.086308	0.027437	0.146525	0.146525	1.313542	1.270545	0.000000	0.000000	0.000000	0.000000	0.000000	0.000000	0.000000	0.000000	0.000000	0.000000	0.000000	0.000000	0.000000	0.000000	0.000000	0.000000	0.000000	0.000000	0.000000	0.000000	0.000000	0.000000
1.380000	-0.010131	-0.286265	0.114992	0.074385	0.066942	0.038580	-0.130188	-0.091729	-0.055658	0.144984	0.086070	0.027437	0.146525	0.146525	1.318210	1.270496	0.000000	0.000000	0.000000	0.000000	0.000000	0.000000	0.000000	0.000000	0.000000	0.000000	0.000000	0.000000	0.000000	0.000000	0.000000	0.000000	0.000000	0.000000	0.000000	0.000000	0.000000	0.000000
1.385000	-0.010110	-0.286534	0.115316	0.074246	0.066836	0.038408	-0.130703	-0.092372	-0.055821	0.144913	0.085829	0.027437	0.146525	0.146525	1.323030	1.270441	0.000000	0.000000	0.000000	0.000000	0.000000	0.000000	0.000000	0.000000	0.000000	0.000000	0.000000	0.000000	0.000000	0.000000	0.000000	0.000000	0.000000	0.000000	0.000000	0.000000	0.000000	0.000000
1.390000	-0.010090	-0.286806	0.115642	0.074106	0.066731	0.038233	-0.131223	-0.093012	-0.055994	0.144843	0.085585	0.027437	0.146525	0.146525	1.328001	1.270379	0.000000	0.000000	0.000000	0.000000	0.000000	0.000000	0.000000	0.000000	0.000000	0.000000	0.000000	0.000000	0.000000	0.000000	0.000000	0.000000	0.000000	0.000000	0.000000	0.000000	0.000000	0.000000
1.395000	-0.010070	-0.287080	0.115970	0.073965	0.066625	0.038057	-0.131747	-0.093648	-0.056176	0.144772	0.085341	0.027437	0.146525	0.146525	1.333122	1.270310	0.000000	0.000000	0.000000	0.000000	0.000000	0.000000	0.000000	0.000000	0.000000	0.000000	0.000000	0.000000	0.000000	0.000000	0.000000	0.000000	0.000000	0.000000	0.000000	0.000000	0.000000	0.000000
1.400000	-0.010051	-0.287357	0.116299	0.073824	0.066518	0.037879	-0.132273	-0.094280	-0.056367	0.144702	0.085094	0.027437	0.146525	0.146525	1.338393	1.270234	0.000000	0.000000	0.000000	0.000000	0.000000	0.000000	0.000000	0.000000	0.000000	0.000000	0.000000	0.000000	0.000000	0.000000	0.000000	0.000000	0.000000	0.000000	0.000000	0.000000	0.000000	0.000000
1.405000	-0.010032	-0.287637	0.116629	0.073682	0.066412	0.037698	-0.132803	-0.094908	-0.056567	0.144632	0.084846	0.027437	0.146525	0.146525	1.343813	1.270152	0.000000	0.000000	0.000000	0.000000	0.000000	0.000000	0.000000	0.000000	0.000000	0.000000	0.000000	0.000000	0.000000	0.000000	0.000000	0.000000	0.000000	0.000000	0.000000	0.000000	0.000000	0.000000
